<svg width="119" height="40" viewBox="0 0 119 40" fill="none" xmlns="http://www.w3.org/2000/svg">
<rect x="108.247" y="22" width="1.42258" height="5.69031" rx="0.711288" fill="white"/>
<rect x="99" y="32.6694" width="1.42258" height="5.69031" rx="0.711288" transform="rotate(-90 99 32.6694)" fill="white"/>
<rect x="112.515" y="32.6694" width="1.42258" height="5.69031" rx="0.711288" transform="rotate(-90 112.515 32.6694)" fill="white"/>
<rect x="101.845" y="24.8379" width="1.42258" height="5.69031" rx="0.711288" transform="rotate(-29.6614 101.845 24.8379)" fill="white"/>
<rect x="102.354" y="39.1113" width="1.42258" height="5.69031" rx="0.711288" transform="rotate(-134.808 102.354 39.1113)" fill="white"/>
<rect x="116.7" y="38.2837" width="1.42258" height="5.69031" rx="0.711288" transform="rotate(137.446 116.7 38.2837)" fill="white"/>
<rect x="114.922" y="24.1338" width="1.42258" height="5.69031" rx="0.711288" transform="rotate(33.2339 114.922 24.1338)" fill="white"/>
<path d="M1.95312 18V3.72266H3.61328V16.5156H9.95117V18H1.95312ZM21.8574 18L20.0996 13.4688H14.377L12.6289 18H10.9492L16.5352 3.66406H18.0293L23.5762 18H21.8574ZM19.6016 11.9941L17.9316 7.49219C17.8926 7.375 17.8275 7.18294 17.7363 6.91602C17.6517 6.64909 17.5638 6.3724 17.4727 6.08594C17.3815 5.79948 17.3066 5.56836 17.248 5.39258C17.1829 5.65951 17.1113 5.92643 17.0332 6.19336C16.9616 6.45378 16.89 6.69792 16.8184 6.92578C16.7467 7.14714 16.6849 7.33594 16.6328 7.49219L14.9336 11.9941H19.6016ZM37.2207 18H35.3066L27.5234 6.00781H27.4453C27.4648 6.32682 27.4876 6.69141 27.5137 7.10156C27.5397 7.50521 27.5592 7.93815 27.5723 8.40039C27.5918 8.85612 27.6016 9.32161 27.6016 9.79688V18H26.0586V3.72266H27.9629L35.7168 15.6758H35.7852C35.7721 15.4479 35.7559 15.1257 35.7363 14.709C35.7168 14.2858 35.6973 13.8333 35.6777 13.3516C35.6647 12.8633 35.6582 12.4108 35.6582 11.9941V3.72266H37.2207V18ZM52.9551 10.7246C52.9551 12.3327 52.6621 13.6771 52.0762 14.7578C51.4902 15.832 50.6406 16.6426 49.5273 17.1895C48.4206 17.7298 47.0762 18 45.4941 18H41.6172V3.72266H45.9238C47.3757 3.72266 48.6257 3.98958 49.6738 4.52344C50.722 5.05078 51.5293 5.83529 52.0957 6.87695C52.6686 7.91211 52.9551 9.19466 52.9551 10.7246ZM51.207 10.7832C51.207 9.50065 50.9922 8.44271 50.5625 7.60938C50.1393 6.77604 49.5143 6.15755 48.6875 5.75391C47.8672 5.34375 46.8613 5.13867 45.6699 5.13867H43.2773V16.5742H45.2988C47.265 16.5742 48.7396 16.0892 49.7227 15.1191C50.7122 14.1491 51.207 12.7038 51.207 10.7832ZM64.6855 14.2012C64.6855 15.0475 64.474 15.7702 64.0508 16.3691C63.6341 16.9616 63.0482 17.4141 62.293 17.7266C61.5378 18.0391 60.6491 18.1953 59.627 18.1953C59.0866 18.1953 58.5755 18.1693 58.0938 18.1172C57.612 18.0651 57.1693 17.9902 56.7656 17.8926C56.362 17.7949 56.0072 17.6745 55.7012 17.5312V15.9395C56.1895 16.1413 56.7852 16.3301 57.4883 16.5059C58.1914 16.6751 58.9271 16.7598 59.6953 16.7598C60.4115 16.7598 61.0169 16.6654 61.5117 16.4766C62.0065 16.2812 62.3809 16.0046 62.6348 15.6465C62.8952 15.2819 63.0254 14.8457 63.0254 14.3379C63.0254 13.8496 62.918 13.4427 62.7031 13.1172C62.4883 12.7852 62.1302 12.4857 61.6289 12.2188C61.1341 11.9453 60.457 11.6556 59.5977 11.3496C58.9922 11.1348 58.4583 10.9004 57.9961 10.6465C57.5339 10.3861 57.1465 10.0931 56.834 9.76758C56.5215 9.44206 56.2839 9.06445 56.1211 8.63477C55.9648 8.20508 55.8867 7.71354 55.8867 7.16016C55.8867 6.39844 56.0788 5.7474 56.4629 5.20703C56.8535 4.66016 57.3906 4.24349 58.0742 3.95703C58.7643 3.66406 59.5553 3.51758 60.4473 3.51758C61.209 3.51758 61.9121 3.58919 62.5566 3.73242C63.2077 3.87565 63.8034 4.06771 64.3438 4.30859L63.8262 5.73438C63.3118 5.51953 62.765 5.34049 62.1855 5.19727C61.6126 5.05404 61.0202 4.98242 60.4082 4.98242C59.7962 4.98242 59.2786 5.07357 58.8555 5.25586C58.4388 5.43164 58.1198 5.68229 57.8984 6.00781C57.6771 6.33333 57.5664 6.7207 57.5664 7.16992C57.5664 7.67122 57.6706 8.08789 57.8789 8.41992C58.0938 8.75195 58.4323 9.04818 58.8945 9.30859C59.3633 9.5625 59.9818 9.82943 60.75 10.1094C61.5898 10.4154 62.3027 10.7409 62.8887 11.0859C63.4746 11.4245 63.9206 11.8411 64.2266 12.3359C64.5326 12.8242 64.6855 13.446 64.6855 14.2012ZM74.209 4.98242C73.4212 4.98242 72.7116 5.11914 72.0801 5.39258C71.4551 5.65951 70.9212 6.05013 70.4785 6.56445C70.0423 7.07227 69.707 7.6875 69.4727 8.41016C69.2383 9.13281 69.1211 9.94661 69.1211 10.8516C69.1211 12.0495 69.3066 13.0911 69.6777 13.9766C70.0553 14.8555 70.6152 15.5358 71.3574 16.0176C72.1061 16.4993 73.0404 16.7402 74.1602 16.7402C74.7982 16.7402 75.3971 16.6882 75.957 16.584C76.5234 16.4733 77.0736 16.3366 77.6074 16.1738V17.6191C77.0866 17.8145 76.5397 17.9577 75.9668 18.0488C75.3939 18.1465 74.7135 18.1953 73.9258 18.1953C72.474 18.1953 71.2598 17.8958 70.2832 17.2969C69.3132 16.6914 68.584 15.8385 68.0957 14.7383C67.6139 13.638 67.373 12.3392 67.373 10.8418C67.373 9.76107 67.5228 8.77474 67.8223 7.88281C68.1283 6.98438 68.571 6.20964 69.1504 5.55859C69.7363 4.90755 70.4525 4.40625 71.2988 4.05469C72.1517 3.69661 73.1283 3.51758 74.2285 3.51758C74.9512 3.51758 75.6478 3.58919 76.3184 3.73242C76.9889 3.87565 77.5944 4.08073 78.1348 4.34766L77.4707 5.75391C77.015 5.54557 76.5137 5.36654 75.9668 5.2168C75.4264 5.06055 74.8405 4.98242 74.209 4.98242ZM90.1582 18L88.4004 13.4688H82.6777L80.9297 18H79.25L84.8359 3.66406H86.3301L91.877 18H90.1582ZM87.9023 11.9941L86.2324 7.49219C86.1934 7.375 86.1283 7.18294 86.0371 6.91602C85.9525 6.64909 85.8646 6.3724 85.7734 6.08594C85.6823 5.79948 85.6074 5.56836 85.5488 5.39258C85.4837 5.65951 85.4121 5.92643 85.334 6.19336C85.2624 6.45378 85.1908 6.69792 85.1191 6.92578C85.0475 7.14714 84.9857 7.33594 84.9336 7.49219L83.2344 11.9941H87.9023ZM98.0898 3.72266C99.9323 3.72266 101.277 4.08398 102.123 4.80664C102.976 5.52279 103.402 6.55143 103.402 7.89258C103.402 8.49805 103.301 9.07422 103.1 9.62109C102.904 10.1615 102.585 10.64 102.143 11.0566C101.7 11.4668 101.117 11.7923 100.395 12.0332C99.6784 12.2676 98.7995 12.3848 97.7578 12.3848H96.0195V18H94.3594V3.72266H98.0898ZM97.9336 5.13867H96.0195V10.959H97.5723C98.4837 10.959 99.2422 10.8613 99.8477 10.666C100.46 10.4707 100.919 10.1549 101.225 9.71875C101.531 9.27604 101.684 8.6901 101.684 7.96094C101.684 7.01042 101.381 6.30404 100.775 5.8418C100.17 5.37305 99.2227 5.13867 97.9336 5.13867ZM114.84 18H106.891V3.72266H114.84V5.1875H108.551V9.80664H114.479V11.252H108.551V16.5352H114.84V18Z" fill="white"/>
<path d="M1.79688 38V23.7227H4.82422V35.5H10.6152V38H1.79688ZM13.1055 38V23.7227H16.1328V38H13.1055ZM25.1465 29.9824H30.8105V37.3848C30.0618 37.6322 29.2839 37.8307 28.4766 37.9805C27.6693 38.1237 26.7546 38.1953 25.7324 38.1953C24.3132 38.1953 23.1087 37.9154 22.1191 37.3555C21.1296 36.7956 20.3776 35.9688 19.8633 34.875C19.349 33.7812 19.0918 32.4368 19.0918 30.8418C19.0918 29.3444 19.3783 28.0488 19.9512 26.9551C20.5306 25.8613 21.3737 25.015 22.4805 24.416C23.5938 23.8171 24.9512 23.5176 26.5527 23.5176C27.3079 23.5176 28.0534 23.599 28.7891 23.7617C29.5247 23.9245 30.1921 24.1361 30.791 24.3965L29.7852 26.8184C29.349 26.597 28.8509 26.4115 28.291 26.2617C27.7311 26.112 27.1452 26.0371 26.5332 26.0371C25.6543 26.0371 24.8893 26.2389 24.2383 26.6426C23.5938 27.0462 23.0924 27.6126 22.7344 28.3418C22.3828 29.0645 22.207 29.9173 22.207 30.9004C22.207 31.8314 22.334 32.6582 22.5879 33.3809C22.8418 34.097 23.2422 34.6602 23.7891 35.0703C24.3359 35.474 25.0488 35.6758 25.9277 35.6758C26.3574 35.6758 26.7188 35.6562 27.0117 35.6172C27.3112 35.5716 27.5911 35.526 27.8516 35.4805V32.502H25.1465V29.9824ZM45.918 38H42.9004V31.8379H37.2461V38H34.2188V23.7227H37.2461V29.3184H42.9004V23.7227H45.918V38ZM55.0391 38H52.0117V26.2422H48.1348V23.7227H58.916V26.2422H55.0391V38ZM61.1133 38V23.7227H64.1406V38H61.1133ZM80.4004 38H76.5527L70.3418 27.1992H70.2539C70.2799 27.6484 70.3027 28.1009 70.3223 28.5566C70.3418 29.0124 70.3613 29.4681 70.3809 29.9238C70.4004 30.373 70.4199 30.8255 70.4395 31.2812V38H67.7344V23.7227H71.5527L77.7539 34.416H77.8223C77.8092 33.9733 77.793 33.5339 77.7734 33.0977C77.7539 32.6615 77.7344 32.2253 77.7148 31.7891C77.7018 31.3529 77.6888 30.9167 77.6758 30.4805V23.7227H80.4004V38ZM89.4238 29.9824H95.0879V37.3848C94.3392 37.6322 93.5612 37.8307 92.7539 37.9805C91.9466 38.1237 91.0319 38.1953 90.0098 38.1953C88.5905 38.1953 87.3861 37.9154 86.3965 37.3555C85.4069 36.7956 84.6549 35.9688 84.1406 34.875C83.6263 33.7812 83.3691 32.4368 83.3691 30.8418C83.3691 29.3444 83.6556 28.0488 84.2285 26.9551C84.8079 25.8613 85.651 25.015 86.7578 24.416C87.8711 23.8171 89.2285 23.5176 90.8301 23.5176C91.5853 23.5176 92.3307 23.599 93.0664 23.7617C93.8021 23.9245 94.4694 24.1361 95.0684 24.3965L94.0625 26.8184C93.6263 26.597 93.1283 26.4115 92.5684 26.2617C92.0085 26.112 91.4225 26.0371 90.8105 26.0371C89.9316 26.0371 89.1667 26.2389 88.5156 26.6426C87.8711 27.0462 87.3698 27.6126 87.0117 28.3418C86.6602 29.0645 86.4844 29.9173 86.4844 30.9004C86.4844 31.8314 86.6113 32.6582 86.8652 33.3809C87.1191 34.097 87.5195 34.6602 88.0664 35.0703C88.6133 35.474 89.3262 35.6758 90.2051 35.6758C90.6348 35.6758 90.9961 35.6562 91.2891 35.6172C91.5885 35.5716 91.8685 35.526 92.1289 35.4805V32.502H89.4238V29.9824Z" fill="white"/>
</svg>
