<svg width="22" height="26" viewBox="0 0 22 26" fill="none" xmlns="http://www.w3.org/2000/svg">
<path d="M14.043 20.5653H1.92838V3.1899H14.0397V4.48973H15.6676V2.83507C15.6687 1.2764 14.3889 0 12.8313 0H3.13894C1.57914 0 0.302734 1.2764 0.302734 2.83507V23.1638C0.302734 24.7247 1.57914 26 3.13894 26H12.8313C14.3889 26 15.6687 24.7247 15.6687 23.1638V20.5351H14.043V20.5653ZM7.98345 24.5808C7.26489 24.5808 6.68475 23.9995 6.68475 23.2821C6.68475 22.5624 7.26494 21.9823 7.98345 21.9823C8.70309 21.9823 9.28442 22.5635 9.28442 23.2821C9.28442 23.9995 8.70314 24.5808 7.98345 24.5808Z" fill="white"/>
<path d="M6.95036 4.93384H3.31641V7.14971H6.95036V4.93384Z" fill="white"/>
<path d="M6.95036 10.6072H3.31641V12.8231H6.95036V10.6072Z" fill="white"/>
<path d="M6.95036 16.5452H3.31641V18.7599H6.95036V16.5452Z" fill="white"/>
<path d="M19.8482 11.5814C19.7199 10.9097 19.4599 10.2882 19.0917 9.74487L20.3949 8.44059L19.0638 7.11396L17.7629 8.41602C17.2217 8.04562 16.5969 7.78896 15.9275 7.65955V5.81299H14.0441V7.65955C13.3736 7.78896 12.7543 8.04671 12.2077 8.41602L10.909 7.11396L9.57788 8.44167L10.8789 9.74596C10.5118 10.2893 10.2529 10.9108 10.1246 11.5813H8.28027V13.4636H10.1246C10.2529 14.1319 10.5129 14.7534 10.8799 15.299L9.57783 16.601L10.9089 17.9265L12.211 16.6256C12.7555 16.996 13.3769 17.2537 14.0474 17.3843V19.2275H15.9308V17.3832C16.6002 17.2548 17.2206 16.9949 17.7662 16.6267L19.0671 17.9277L20.3982 16.601L19.095 15.299C19.4632 14.7556 19.7221 14.1331 19.8515 13.4625H21.6969V11.5814H19.8482ZM14.9881 14.5704C13.8556 14.5704 12.9362 13.6555 12.9362 12.522C12.9362 11.3895 13.8555 10.469 14.9881 10.469C16.1216 10.469 17.0365 11.3884 17.0365 12.522C17.0365 13.6566 16.1194 14.5704 14.9881 14.5704Z" fill="white"/>
</svg>
