<svg width="24" height="24" viewBox="0 0 24 24" fill="none" xmlns="http://www.w3.org/2000/svg">
<g clip-path="url(#clip0_64_729)">
<path d="M17.745 -1.79858e-05C17.4806 0.00748201 17.2744 0.230607 17.28 0.494982C17.2856 0.757482 17.4994 0.959982 17.76 0.959982H17.775C17.8369 0.952482 19.5225 0.952482 21.255 2.72998C22.9988 4.51686 23.04 6.22498 23.04 6.23998C23.04 6.50436 23.2538 6.71998 23.52 6.71998C23.7863 6.71998 24 6.50436 24 6.23998C24 6.15561 23.9775 4.15498 21.945 2.06998C19.8994 -0.0262681 17.8388 -0.00564301 17.745 -1.79858e-05ZM17.76 2.87998C17.4975 2.87998 17.2838 3.09748 17.28 3.35998C17.2763 3.62248 17.4975 3.83436 17.76 3.83998C17.7919 3.83998 18.5419 3.87186 19.335 4.66498C20.1281 5.45811 20.16 6.21373 20.16 6.23998C20.16 6.50436 20.3738 6.71998 20.64 6.71998C20.9063 6.71998 21.12 6.50436 21.12 6.23998C21.12 6.19311 21.1125 5.06248 20.025 3.97498C18.9375 2.88748 17.8069 2.87998 17.76 2.87998ZM13.785 2.89498C13.2694 2.89311 12.7388 3.07311 12.33 3.44998L0.570002 15.255C-0.194998 16.02 -0.200623 17.2725 0.570002 18.105L5.955 23.475C6.32438 23.8444 6.81563 24.045 7.35 24.045C7.87688 24.045 8.385 23.8481 8.79 23.475L20.565 11.685C21.2981 10.8281 21.2981 9.58311 20.55 8.83498L15.165 3.44998C14.7975 3.08248 14.3006 2.89686 13.785 2.89498ZM13.44 7.19998C15.2963 7.19998 16.8 8.70373 16.8 10.56C16.8 12.4162 15.2963 13.92 13.44 13.92C11.5838 13.92 10.08 12.4162 10.08 10.56C10.08 8.70373 11.5838 7.19998 13.44 7.19998ZM13.44 9.59998C12.9094 9.59998 12.48 10.0294 12.48 10.56C12.48 11.0906 12.9094 11.52 13.44 11.52C13.9706 11.52 14.4 11.0906 14.4 10.56C14.4 10.0294 13.9706 9.59998 13.44 9.59998ZM7.2 12.96C7.73063 12.96 8.16 13.3894 8.16 13.92C8.16 14.4506 7.73063 14.88 7.2 14.88C6.66938 14.88 6.24 14.4506 6.24 13.92C6.24 13.3894 6.66938 12.96 7.2 12.96ZM4.8 15.36C5.33063 15.36 5.76 15.7894 5.76 16.32C5.76 16.8506 5.33063 17.28 4.8 17.28C4.26938 17.28 3.84 16.8506 3.84 16.32C3.84 15.7894 4.26938 15.36 4.8 15.36ZM10.08 15.84C10.6106 15.84 11.04 16.2694 11.04 16.8C11.04 17.3306 10.6106 17.76 10.08 17.76C9.54938 17.76 9.12 17.3306 9.12 16.8C9.12 16.2694 9.54938 15.84 10.08 15.84ZM7.68 18.24C8.21063 18.24 8.64 18.6694 8.64 19.2C8.64 19.7306 8.21063 20.16 7.68 20.16C7.14938 20.16 6.72 19.7306 6.72 19.2C6.72 18.6694 7.14938 18.24 7.68 18.24Z" fill="white"/>
</g>
<defs>
<clipPath id="clip0_64_729">
<rect width="24" height="24" fill="white"/>
</clipPath>
</defs>
</svg>
