<svg width="30" height="33" viewBox="0 0 30 33" fill="none" xmlns="http://www.w3.org/2000/svg">
<path d="M13.5004 6.3916C6.92785 6.3916 1.5791 11.7404 1.5791 18.3128C1.5791 24.8853 6.92785 30.2478 13.5004 30.2478C20.0729 30.2478 25.4216 24.899 25.4216 18.3265C25.4216 11.7541 20.0729 6.3916 13.5004 6.3916ZM14.5316 17.8728C14.5316 18.4365 14.0641 18.904 13.5004 18.904C12.9366 18.904 12.4691 18.4365 12.4691 17.8728V10.9979C12.4691 10.4341 12.9366 9.9666 13.5004 9.9666C14.0641 9.9666 14.5316 10.4341 14.5316 10.9979V17.8728Z" fill="white"/>
<path d="M17.4746 4.74375H9.52711C8.97711 4.74375 8.53711 4.30375 8.53711 3.75375C8.53711 3.20375 8.97711 2.75 9.52711 2.75H17.4746C18.0246 2.75 18.4646 3.19 18.4646 3.74C18.4646 4.29 18.0246 4.74375 17.4746 4.74375Z" fill="white"/>
</svg>
